<svg xmlns="http://www.w3.org/2000/svg" xmlns:xlink="http://www.w3.org/1999/xlink" width="680" zoomAndPan="magnify" viewBox="0 0 510 149.999998" height="200" preserveAspectRatio="xMidYMid meet" version="1.2"><defs><clipPath id="a95b4b9cb1"><path d="M 46 45 L 134 45 L 134 133 L 46 133 Z M 46 45 "/></clipPath><clipPath id="4c106201e6"><path d="M 127.367188 43.421875 L 135.503906 51.558594 L 52.101562 134.960938 L 43.964844 126.824219 Z M 127.367188 43.421875 "/></clipPath><clipPath id="bbeaa1b8d9"><path d="M 131.4375 47.492188 C 132.515625 48.570312 133.121094 50.035156 133.121094 51.558594 C 133.121094 53.085938 132.515625 54.550781 131.4375 55.628906 L 56.171875 130.894531 C 55.09375 131.972656 53.628906 132.578125 52.101562 132.578125 C 50.578125 132.578125 49.113281 131.972656 48.035156 130.894531 C 46.953125 129.816406 46.347656 128.351562 46.347656 126.824219 C 46.347656 125.300781 46.953125 123.835938 48.035156 122.757812 L 123.300781 47.492188 C 124.378906 46.414062 125.84375 45.804688 127.367188 45.804688 C 128.894531 45.804688 130.359375 46.414062 131.4375 47.492188 Z M 131.4375 47.492188 "/></clipPath><clipPath id="8c6cd75c20"><path d="M 17 17 L 105 17 L 105 105 L 17 105 Z M 17 17 "/></clipPath><clipPath id="cb64738d54"><path d="M 98.457031 15 L 106.59375 23.136719 L 23.191406 106.539062 L 15.054688 98.402344 Z M 98.457031 15 "/></clipPath><clipPath id="ace6880d75"><path d="M 102.523438 19.070312 C 103.605469 20.148438 104.210938 21.609375 104.210938 23.136719 C 104.210938 24.664062 103.605469 26.125 102.523438 27.207031 L 27.257812 102.472656 C 26.179688 103.550781 24.714844 104.15625 23.191406 104.15625 C 21.664062 104.15625 20.199219 103.550781 19.121094 102.472656 C 18.042969 101.390625 17.4375 99.929688 17.4375 98.402344 C 17.4375 96.878906 18.042969 95.414062 19.121094 94.335938 L 94.386719 19.070312 C 95.46875 17.988281 96.929688 17.382812 98.457031 17.382812 C 99.984375 17.382812 101.445312 17.988281 102.523438 19.070312 Z M 102.523438 19.070312 "/></clipPath><clipPath id="71bbea2f74"><path d="M 45 17 L 94 17 L 94 66 L 45 66 Z M 45 17 "/></clipPath><clipPath id="c95a3f0e5d"><path d="M 43.308594 23.226562 L 51.445312 15.089844 L 96.199219 59.84375 L 88.0625 67.980469 Z M 43.308594 23.226562 "/></clipPath><clipPath id="997993c17d"><path d="M 47.375 19.160156 C 48.457031 18.082031 49.917969 17.472656 51.445312 17.472656 C 52.972656 17.472656 54.433594 18.082031 55.511719 19.160156 L 92.128906 55.773438 C 93.207031 56.855469 93.8125 58.316406 93.8125 59.84375 C 93.8125 61.371094 93.207031 62.832031 92.128906 63.910156 C 91.050781 64.992188 89.585938 65.597656 88.0625 65.597656 C 86.535156 65.597656 85.070312 64.992188 83.992188 63.910156 L 47.375 27.296875 C 46.296875 26.21875 45.691406 24.753906 45.691406 23.226562 C 45.691406 21.703125 46.296875 20.238281 47.375 19.160156 Z M 47.375 19.160156 "/></clipPath><clipPath id="f7c5294e06"><path d="M 55 84 L 104 84 L 104 133 L 55 133 Z M 55 84 "/></clipPath><clipPath id="2e09072d3f"><path d="M 53.160156 90.246094 L 61.296875 82.109375 L 106.050781 126.863281 L 97.914062 135 Z M 53.160156 90.246094 "/></clipPath><clipPath id="2736a1031d"><path d="M 57.230469 86.179688 C 58.308594 85.101562 59.773438 84.492188 61.296875 84.492188 C 62.824219 84.492188 64.289062 85.101562 65.367188 86.179688 L 101.984375 122.792969 C 103.0625 123.875 103.667969 125.335938 103.667969 126.863281 C 103.667969 128.390625 103.0625 129.851562 101.984375 130.929688 C 100.902344 132.011719 99.441406 132.617188 97.914062 132.617188 C 96.386719 132.617188 94.925781 132.011719 93.847656 130.929688 L 57.230469 94.316406 C 56.152344 93.238281 55.546875 91.773438 55.546875 90.246094 C 55.546875 88.722656 56.152344 87.257812 57.230469 86.179688 Z M 57.230469 86.179688 "/></clipPath><clipPath id="9ac1ad9374"><path d="M 113 84 L 133 84 L 133 105 L 113 105 Z M 113 84 "/></clipPath><clipPath id="e2707809ee"><path d="M 110.824219 90.175781 L 118.96875 82.03125 L 135.25 98.316406 L 127.109375 106.457031 Z M 110.824219 90.175781 "/></clipPath><clipPath id="89da1ff9c5"><path d="M 114.894531 86.101562 C 115.976562 85.023438 117.441406 84.417969 118.96875 84.417969 C 120.496094 84.417969 121.957031 85.023438 123.039062 86.101562 L 131.171875 94.234375 C 132.25 95.316406 132.855469 96.777344 132.855469 98.304688 C 132.855469 99.832031 132.25 101.296875 131.171875 102.375 C 130.089844 103.457031 128.625 104.0625 127.097656 104.0625 C 125.570312 104.0625 124.109375 103.457031 123.027344 102.375 L 114.894531 94.246094 C 113.816406 93.164062 113.210938 91.699219 113.210938 90.175781 C 113.210938 88.648438 113.816406 87.183594 114.894531 86.101562 Z M 114.894531 86.101562 "/></clipPath><clipPath id="5f1aa51712"><path d="M 17 46 L 38 46 L 38 66 L 17 66 Z M 17 46 "/></clipPath><clipPath id="1f7b9d0e8b"><path d="M 15 51.96875 L 23.136719 43.832031 L 39.410156 60.105469 L 31.273438 68.242188 Z M 15 51.96875 "/></clipPath><clipPath id="e35f5aa1d2"><path d="M 19.070312 47.898438 C 20.148438 46.820312 21.609375 46.214844 23.136719 46.214844 C 24.664062 46.214844 26.125 46.820312 27.207031 47.898438 L 35.34375 56.035156 C 36.421875 57.113281 37.027344 58.578125 37.027344 60.105469 C 37.027344 61.628906 36.421875 63.09375 35.34375 64.171875 C 34.261719 65.25 32.800781 65.859375 31.273438 65.859375 C 29.746094 65.859375 28.285156 65.25 27.207031 64.171875 L 19.070312 56.035156 C 17.988281 54.957031 17.382812 53.492188 17.382812 51.96875 C 17.382812 50.441406 17.988281 48.976562 19.070312 47.898438 Z M 19.070312 47.898438 "/></clipPath></defs><g id="06f4e01c25"><g clip-rule="nonzero" clip-path="url(#a95b4b9cb1)"><g clip-rule="nonzero" clip-path="url(#4c106201e6)"><g clip-rule="nonzero" clip-path="url(#bbeaa1b8d9)"><path style=" stroke:none;fill-rule:nonzero;fill:#4876ff;fill-opacity:1;" d="M 127.367188 43.421875 L 135.503906 51.558594 L 52.101562 134.960938 L 43.964844 126.824219 Z M 127.367188 43.421875 "/></g></g></g><g clip-rule="nonzero" clip-path="url(#8c6cd75c20)"><g clip-rule="nonzero" clip-path="url(#cb64738d54)"><g clip-rule="nonzero" clip-path="url(#ace6880d75)"><path style=" stroke:none;fill-rule:nonzero;fill:#ffffff;fill-opacity:1;" d="M 98.457031 15 L 106.59375 23.136719 L 23.191406 106.539062 L 15.054688 98.402344 Z M 98.457031 15 "/></g></g></g><g clip-rule="nonzero" clip-path="url(#71bbea2f74)"><g clip-rule="nonzero" clip-path="url(#c95a3f0e5d)"><g clip-rule="nonzero" clip-path="url(#997993c17d)"><path style=" stroke:none;fill-rule:nonzero;fill:#ffffff;fill-opacity:1;" d="M 43.308594 23.226562 L 51.445312 15.089844 L 96.199219 59.84375 L 88.0625 67.980469 Z M 43.308594 23.226562 "/></g></g></g><g clip-rule="nonzero" clip-path="url(#f7c5294e06)"><g clip-rule="nonzero" clip-path="url(#2e09072d3f)"><g clip-rule="nonzero" clip-path="url(#2736a1031d)"><path style=" stroke:none;fill-rule:nonzero;fill:#4876ff;fill-opacity:1;" d="M 53.160156 90.246094 L 61.296875 82.109375 L 106.050781 126.863281 L 97.914062 135 Z M 53.160156 90.246094 "/></g></g></g><g clip-rule="nonzero" clip-path="url(#9ac1ad9374)"><g clip-rule="nonzero" clip-path="url(#e2707809ee)"><g clip-rule="nonzero" clip-path="url(#89da1ff9c5)"><path style=" stroke:none;fill-rule:nonzero;fill:#ffffff;fill-opacity:1;" d="M 110.824219 90.175781 L 118.96875 82.03125 L 135.25 98.316406 L 127.109375 106.457031 Z M 110.824219 90.175781 "/></g></g></g><g clip-rule="nonzero" clip-path="url(#5f1aa51712)"><g clip-rule="nonzero" clip-path="url(#1f7b9d0e8b)"><g clip-rule="nonzero" clip-path="url(#e35f5aa1d2)"><path style=" stroke:none;fill-rule:nonzero;fill:#4876ff;fill-opacity:1;" d="M 15 51.96875 L 23.136719 43.832031 L 39.410156 60.105469 L 31.273438 68.242188 Z M 15 51.96875 "/></g></g></g><g style="fill:#4876ff;fill-opacity:1;"><g transform="translate(172.067265, 104.999996)"><path style="stroke:none" d="M 5.933594 0.5 C 9.195312 0.5 10.867188 -0.917969 12.371094 -5.769531 L 14.378906 -11.785156 L 37.953125 -11.785156 L 40.042969 -5.601562 C 41.296875 -1.589844 42.71875 0.5 46.480469 0.5 C 49.90625 0.5 52.164062 -1.421875 52.164062 -4.429688 C 52.164062 -6.9375 51.242188 -9.53125 50.40625 -11.785156 L 35.027344 -53.082031 C 33.1875 -58.015625 30.511719 -60.691406 26.25 -60.691406 C 21.816406 -60.691406 19.226562 -58.015625 17.386719 -53.082031 L 2.171875 -12.371094 C 1.171875 -9.695312 0.167969 -6.855469 0.167969 -4.429688 C 0.167969 -1.421875 2.425781 0.5 5.933594 0.5 Z M 17.972656 -22.90625 L 26.332031 -47.0625 L 26.5 -47.0625 L 34.359375 -22.90625 Z M 17.972656 -22.90625 "/></g></g><g style="fill:#4876ff;fill-opacity:1;"><g transform="translate(224.394468, 104.999996)"><path style="stroke:none" d="M 9.695312 0.5 C 13.375 0.5 15.714844 -1.839844 15.714844 -5.769531 L 15.714844 -53.75 C 15.714844 -57.679688 13.375 -60.019531 9.695312 -60.019531 C 6.101562 -60.019531 3.679688 -57.679688 3.679688 -53.75 L 3.679688 -5.769531 C 3.679688 -1.839844 6.101562 0.5 9.695312 0.5 Z M 9.695312 0.5 "/></g></g><g style="fill:#ffffff;fill-opacity:1;"><g transform="translate(243.879761, 104.999996)"><path style="stroke:none" d="M 22.988281 1.171875 C 26.417969 1.171875 30.179688 0.417969 33.019531 -1.085938 C 35.863281 -2.507812 37.785156 -4.597656 37.785156 -7.105469 C 37.785156 -9.78125 35.527344 -12.203125 32.9375 -12.203125 C 32.183594 -12.203125 31.015625 -11.621094 29.425781 -11.117188 C 27.835938 -10.53125 25.746094 -9.949219 23.15625 -9.949219 C 17.136719 -9.949219 13.375 -15.296875 13.375 -22.320312 C 13.375 -29.257812 17.136719 -34.523438 23.742188 -34.523438 C 26.417969 -34.523438 28.089844 -33.855469 30.179688 -32.9375 C 31.015625 -32.519531 31.933594 -32.269531 32.851562 -32.269531 C 35.777344 -32.269531 37.785156 -34.691406 37.785156 -37.785156 C 37.785156 -40.460938 36.113281 -42.464844 33.269531 -43.71875 C 30.679688 -44.972656 27.167969 -45.644531 23.238281 -45.644531 C 10.53125 -45.644531 1.671875 -35.359375 1.671875 -22.152344 C 1.671875 -9.195312 10.53125 1.171875 22.988281 1.171875 Z M 22.988281 1.171875 "/></g></g><g style="fill:#ffffff;fill-opacity:1;"><g transform="translate(282.247473, 104.999996)"><path style="stroke:none" d="M 23.90625 1.171875 C 30.179688 1.171875 36.449219 -0.667969 40.210938 -3.425781 C 42.464844 -5.015625 43.804688 -7.023438 43.804688 -9.113281 C 43.804688 -11.871094 41.796875 -14.128906 38.871094 -14.128906 C 38.035156 -14.128906 36.949219 -13.710938 35.527344 -12.875 C 32.101562 -10.699219 28.757812 -9.445312 25.160156 -9.445312 C 18.472656 -9.445312 14.460938 -13.039062 14.210938 -18.308594 L 38.789062 -18.308594 C 42.800781 -18.308594 44.472656 -19.8125 44.472656 -23.574219 C 44.472656 -35.195312 36.28125 -45.644531 23.742188 -45.644531 C 10.699219 -45.644531 1.671875 -34.777344 1.671875 -22.234375 C 1.671875 -9.027344 10.28125 1.171875 23.90625 1.171875 Z M 14.210938 -26.417969 C 14.460938 -31.347656 18.558594 -35.777344 23.40625 -35.777344 C 28.339844 -35.777344 32.519531 -31.347656 32.6875 -26.417969 Z M 14.210938 -26.417969 "/></g></g><g style="fill:#ffffff;fill-opacity:1;"><g transform="translate(328.138267, 104.999996)"><path style="stroke:none" d="M 9.695312 0.5 C 13.375 0.5 15.714844 -1.839844 15.714844 -5.769531 L 15.714844 -24.410156 L 28.925781 -24.410156 C 32.269531 -24.410156 34.777344 -26.5 34.777344 -30.011719 C 34.777344 -33.523438 32.269531 -35.613281 28.925781 -35.613281 L 15.714844 -35.613281 L 15.714844 -48.402344 L 30.761719 -48.402344 C 34.105469 -48.402344 36.613281 -50.40625 36.613281 -53.917969 C 36.613281 -57.261719 34.105469 -59.519531 30.761719 -59.519531 L 9.695312 -59.519531 C 6.4375 -59.519531 3.679688 -57.011719 3.679688 -53.585938 L 3.679688 -5.769531 C 3.679688 -1.839844 6.101562 0.5 9.695312 0.5 Z M 9.695312 0.5 "/></g></g><g style="fill:#ffffff;fill-opacity:1;"><g transform="translate(364.667005, 104.999996)"><path style="stroke:none" d="M 9.695312 0.5 C 13.375 0.5 15.714844 -1.839844 15.714844 -5.769531 L 15.714844 -53.75 C 15.714844 -57.679688 13.375 -60.019531 9.695312 -60.019531 C 6.101562 -60.019531 3.679688 -57.679688 3.679688 -53.75 L 3.679688 -5.769531 C 3.679688 -1.839844 6.101562 0.5 9.695312 0.5 Z M 9.695312 0.5 "/></g></g><g style="fill:#ffffff;fill-opacity:1;"><g transform="translate(384.143429, 104.999996)"><path style="stroke:none" d="M 23.070312 1.171875 C 35.863281 1.171875 44.472656 -8.945312 44.472656 -22.234375 C 44.472656 -35.777344 35.613281 -45.644531 23.070312 -45.644531 C 10.367188 -45.644531 1.671875 -35.527344 1.671875 -22.234375 C 1.671875 -8.945312 10.28125 1.171875 23.070312 1.171875 Z M 23.070312 -9.863281 C 17.054688 -9.863281 13.375 -15.046875 13.375 -22.234375 C 13.375 -29.425781 17.136719 -34.609375 22.988281 -34.609375 C 29.175781 -34.609375 32.769531 -29.34375 32.769531 -22.234375 C 32.769531 -15.046875 29.007812 -9.863281 23.070312 -9.863281 Z M 23.070312 -9.863281 "/></g></g><g style="fill:#ffffff;fill-opacity:1;"><g transform="translate(430.284998, 104.999996)"><path style="stroke:none" d="M 18.558594 0.5 C 22.652344 0.5 24.074219 -1.839844 25.246094 -5.351562 L 31.515625 -24.492188 L 31.683594 -24.492188 L 37.867188 -5.601562 C 39.375 -1.003906 41.210938 0.5 44.722656 0.5 C 49.238281 0.5 50.742188 -1.839844 52.246094 -6.019531 L 60.355469 -29.34375 C 61.527344 -32.519531 63.449219 -37.449219 63.449219 -39.457031 C 63.449219 -42.464844 61.273438 -44.972656 57.597656 -44.972656 C 54.839844 -44.972656 52.832031 -43.636719 51.914062 -40.628906 L 44.808594 -17.21875 L 44.640625 -17.21875 L 37.867188 -38.703125 C 36.195312 -43.972656 34.191406 -44.972656 31.597656 -44.972656 C 28.671875 -44.972656 26.835938 -43.136719 25.914062 -40.292969 L 18.558594 -17.21875 L 18.390625 -17.21875 L 11.117188 -41.128906 C 10.449219 -43.386719 8.441406 -44.972656 5.601562 -44.972656 C 1.921875 -44.972656 -0.25 -42.464844 -0.25 -39.457031 C -0.25 -38.035156 0.25 -36.363281 1.589844 -32.6875 L 11.285156 -5.183594 C 12.457031 -1.753906 14.460938 0.5 18.558594 0.5 Z M 18.558594 0.5 "/></g></g></g></svg>